HIERARCHY
ROOT root
{
	OFFSET 0.0000 0.0000 0.0000
	CHANNELS 6 Xposition Yposition Zposition Zrotation Xrotation Yrotation
	JOINT rfemur
	{
		OFFSET -8.5590 -9.8555 2.1513
		CHANNELS 3 Zrotation Xrotation Yrotation
		JOINT rtibia
		{
			OFFSET -7.2751 -41.2593 0.0000
			CHANNELS 3 Zrotation Xrotation Yrotation
			JOINT rfoot
			{
				OFFSET -6.5686 -37.2525 -0.0000
				CHANNELS 3 Zrotation Xrotation Yrotation
				JOINT rtoes
				{
					OFFSET 3.2326 -4.1860 10.4122
					CHANNELS 3 Zrotation Xrotation Yrotation
					End Site
					{
						OFFSET 0.0000 0.0000 0.0000
					}
				}
			}
		}
	}
	JOINT lfemur
	{
		OFFSET 8.5590 -9.8555 2.1513
		CHANNELS 3 Zrotation Xrotation Yrotation
		JOINT ltibia
		{
			OFFSET 7.2751 -41.2593 0.0000
			CHANNELS 3 Zrotation Xrotation Yrotation
			JOINT lfoot
			{
				OFFSET 6.5686 -37.2525 -0.0000
				CHANNELS 3 Zrotation Xrotation Yrotation
				JOINT ltoes
				{
					OFFSET 3.2326 -4.1860 10.4122
					CHANNELS 3 Zrotation Xrotation Yrotation
					End Site
					{
						OFFSET -0.0000 -0.0000 0.0000
					}
				}
			}
		}
	}
}
MOTION
Frames: 30
Frame Time: 0.008333
21.7755 98.1342 14.0981 -2.5800 6.7900 41.9500 -4.5700 -38.4900 -18.9400 4.1400 44.7000 -10.0500 -2.8600 15.0700 10.4500 0.0000 0.1300 -0.0200 -12.5700 -9.3300 8.8000 -0.7700 21.6600 4.0200 0.0000 0.0000 0.0000 0.0000 0.0000 0.0000 
22.3320 98.0257 14.7911 -2.7200 6.7800 42.3400 -4.6200 -38.5400 -20.0900 3.5500 42.1500 -9.1800 -2.9600 15.0800 10.8500 0.0000 0.1800 -0.0300 -12.4300 -8.7700 8.5900 -0.7700 21.6200 4.0100 0.0000 0.0000 0.0000 0.0000 0.0000 0.0000 
22.8977 97.8959 15.5509 -2.8800 6.8600 42.5700 -4.6400 -38.7100 -21.2800 3.0300 39.6200 -8.3900 -3.1200 15.2700 11.3500 0.0000 0.2300 -0.0400 -12.3300 -8.2700 8.5400 -0.7600 21.5300 3.9900 0.0000 0.0000 0.0000 0.0000 0.0000 0.0000 
23.4603 97.7486 16.3203 -2.8600 6.9200 42.7600 -4.9500 -38.7000 -22.9000 2.5700 37.0900 -7.6600 -3.4800 15.7500 12.3500 0.0000 0.1800 -0.0300 -12.3600 -7.6200 8.5500 -0.7500 21.4800 3.9800 0.0000 0.0000 0.0000 0.0000 0.0000 0.0000 
24.0337 97.5792 17.0716 -2.8100 7.1200 42.9000 -5.6700 -38.8200 -25.3500 2.1800 34.6100 -6.9900 -4.1300 16.4100 14.2300 0.0000 0.2000 -0.0400 -12.4800 -7.1200 8.5700 -0.7600 21.5000 3.9800 0.0000 0.0000 0.0000 0.0000 0.0000 0.0000 
24.6078 97.3983 17.8495 -2.7200 7.3300 42.9600 -6.5600 -39.0000 -28.3600 1.8500 32.2500 -6.3900 -5.0500 17.3000 16.7000 0.0000 0.0900 -0.0200 -12.6100 -6.6300 8.6700 -0.7600 21.5800 4.0000 0.0000 0.0000 0.0000 0.0000 0.0000 0.0000 
25.1761 97.2137 18.6352 -2.7100 7.5100 43.0700 -7.5000 -39.1600 -31.8900 1.5700 30.0100 -5.8500 -6.2000 18.0400 19.8700 0.0000 0.0400 -0.0100 -12.6700 -6.1800 8.7100 -0.7700 21.6800 4.0200 0.0000 0.0000 0.0000 0.0000 0.0000 0.0000 
25.7437 97.0143 19.4602 -2.6700 7.5600 43.0500 -6.8900 -39.3400 -31.6500 1.3400 27.9600 -5.3700 -6.4800 18.5500 20.1200 0.0000 0.0300 -0.0100 -12.6000 -5.6100 8.9000 -0.7800 21.8600 4.0600 0.0000 0.0000 0.0000 0.0000 0.0000 0.0000 
26.3017 96.8220 20.2813 -2.5100 7.7300 42.9500 -6.5100 -39.6500 -31.3400 1.1500 26.1500 -4.9700 -6.8500 19.0600 20.6400 0.0000 -0.0600 0.0100 -12.7100 -5.0900 9.1500 -0.8000 22.1100 4.1100 0.0000 0.0000 0.0000 0.0000 0.0000 0.0000 
26.8521 96.6549 21.1109 -2.3000 7.9800 42.9300 -6.3900 -39.9600 -31.1700 1.0100 24.5600 -4.6200 -7.1400 19.2600 21.3200 0.0000 -0.1000 0.0200 -12.9000 -4.6800 9.2900 -0.8300 22.4200 4.1700 0.0000 0.0000 0.0000 0.0000 0.0000 0.0000 
27.4399 96.4771 21.9410 -2.2600 8.0800 42.9600 -6.0400 -40.1700 -31.0100 0.8800 23.1000 -4.3100 -7.3500 19.1400 22.1600 0.0000 -0.1700 0.0300 -12.8500 -4.2300 9.4100 -0.8500 22.7100 4.2300 0.0000 0.0000 0.0000 0.0000 0.0000 0.0000 
28.0284 96.2817 22.7751 -2.4900 8.2100 43.0400 -5.5600 -40.4900 -30.9100 0.7800 21.7700 -4.0400 -7.4400 18.7200 23.0800 0.0000 -0.3200 0.0600 -12.6200 -3.9800 9.4700 -0.8700 22.9600 4.2800 0.0000 0.0000 0.0000 0.0000 0.0000 0.0000 
28.6372 96.0930 23.6215 -2.6300 8.4400 43.1500 -5.2300 -40.7200 -30.8500 0.6900 20.5900 -3.8000 -7.2200 17.7100 23.9800 0.0000 -0.2800 0.0500 -12.6100 -3.6600 9.5000 -0.8800 23.1000 4.3100 0.0000 0.0000 0.0000 0.0000 0.0000 0.0000 
29.2369 95.9421 24.4756 -2.6000 8.6700 43.1600 -4.9800 -40.8300 -30.6900 0.6300 19.6900 -3.6200 -6.6300 16.1400 24.6300 0.0000 0.0300 -0.0100 -12.6800 -3.1600 9.6300 -0.8800 23.1200 4.3200 0.0000 0.0000 0.0000 0.0000 0.0000 0.0000 
29.8277 95.8037 25.3366 -2.5300 8.7700 43.2800 -4.8500 -40.7800 -30.7000 0.5900 19.1800 -3.5200 -5.7500 14.2000 24.9600 0.0000 0.5100 -0.0900 -12.6400 -2.5300 9.6800 -0.8800 23.0500 4.3000 0.0000 0.0000 0.0000 0.0000 0.0000 0.0000 
30.4193 95.6683 26.2034 -2.4200 8.8000 43.3900 -4.9000 -40.7000 -30.8000 0.5900 19.1900 -3.5200 -4.8000 12.2500 25.1000 0.0000 1.1700 -0.2100 -12.5700 -1.7500 9.7600 -0.8700 22.9200 4.2700 0.0000 0.0000 0.0000 0.0000 0.0000 0.0000 
31.0002 95.5518 27.0670 -2.2300 8.8800 43.4900 -5.2400 -40.7100 -30.9800 0.6300 19.7400 -3.6300 -4.2600 11.1300 25.1700 0.0000 1.4900 -0.2600 -12.5800 -0.9400 9.8300 -0.8500 22.7500 4.2400 0.0000 0.0000 0.0000 0.0000 0.0000 0.0000 
31.5890 95.4308 27.9718 -2.1200 9.0000 43.4500 -5.5800 -40.9700 -31.0400 0.7000 20.7600 -3.8300 -4.3100 11.3000 24.9400 0.0000 1.1700 -0.2100 -12.5100 -0.2400 10.0300 -0.8400 22.6400 4.2200 0.0000 0.0000 0.0000 0.0000 0.0000 0.0000 
32.1854 95.3417 28.9250 -1.9900 9.0900 43.4200 -6.0600 -41.2900 -31.1700 0.8100 22.2000 -4.1300 -4.7700 12.3200 24.6400 0.0000 0.5500 -0.1000 -12.4400 0.4500 10.2100 -0.8400 22.5900 4.2100 0.0000 0.0000 0.0000 0.0000 0.0000 0.0000 
32.8110 95.2886 29.8955 -1.9700 8.9800 43.5500 -6.4300 -41.4800 -31.4800 0.9400 23.8100 -4.4600 -5.3100 13.5800 24.3000 0.0000 0.0900 -0.0200 -12.1500 1.2300 10.2700 -0.8300 22.5200 4.1900 0.0000 0.0000 0.0000 0.0000 0.0000 0.0000 
33.4726 95.2543 30.8773 -1.9400 8.8700 43.7500 -6.8300 -41.5800 -31.8600 1.0700 25.2800 -4.7800 -5.8900 14.9100 24.0300 0.0000 -0.2100 0.0400 -11.8500 1.9700 10.2400 -0.8400 22.5400 4.2000 0.0000 0.0000 0.0000 0.0000 0.0000 0.0000 
34.1600 95.2276 31.8686 -2.0200 8.6600 44.0900 -7.2300 -41.5000 -32.4200 1.2000 26.5900 -5.0600 -6.4000 16.0000 23.9600 0.0000 -0.3000 0.0500 -11.3800 2.6000 10.0600 -0.8600 22.7800 4.2500 0.0000 0.0000 0.0000 0.0000 0.0000 0.0000 
34.8534 95.2470 32.8882 -2.1500 8.4500 44.4800 -7.5700 -41.3300 -33.0200 1.3200 27.7500 -5.3200 -6.8200 16.7900 24.1300 0.0000 -0.2600 0.0500 -10.8900 3.0900 9.8200 -0.8900 23.1900 4.3300 0.0000 0.0000 0.0000 0.0000 0.0000 0.0000 
35.5585 95.2779 33.9227 -2.2900 8.3200 44.8700 -7.8000 -41.1500 -33.5500 1.4200 28.6800 -5.5300 -7.2300 17.5200 24.3300 0.0000 -0.3300 0.0600 -10.6400 3.3900 8.7900 -0.9500 23.8900 4.4800 0.0000 0.0000 0.0000 0.0000 0.0000 0.0000 
36.2524 95.3186 34.9786 -2.5000 8.1300 45.1700 -7.7400 -40.8900 -33.9100 1.5100 29.5000 -5.7300 -7.4600 17.9700 24.3800 0.0000 -0.3800 0.0700 -10.2400 3.5100 7.8500 -1.0300 24.8000 4.6700 0.0000 0.0000 0.0000 0.0000 0.0000 0.0000 
36.9331 95.3516 36.0246 -2.7200 8.0000 45.3000 -7.6500 -40.6000 -34.0800 1.6000 30.2600 -5.9000 -7.4700 18.0100 24.3500 0.0000 -0.3100 0.0600 -9.8100 3.3300 7.3000 -1.1400 25.9900 4.9300 0.0000 0.0000 0.0000 0.0000 0.0000 0.0000 
37.5425 95.4359 37.0032 -2.9200 7.8700 45.5700 -7.6000 -40.1600 -34.3800 1.6700 30.8500 -6.0400 -7.3100 17.7500 24.2100 0.0000 -0.1700 0.0300 -9.3700 2.7800 6.5200 -1.3000 27.6300 5.3000 0.0000 0.0000 0.0000 0.0000 0.0000 0.0000 
38.1566 95.5670 37.9816 -3.0400 7.6300 45.6300 -7.3000 -39.5500 -34.3900 1.7300 31.3100 -6.1600 -7.2000 17.4800 24.2800 0.0000 -0.2200 0.0400 -8.8800 2.1600 5.9700 -1.5200 29.5900 5.7500 0.0000 0.0000 0.0000 0.0000 0.0000 0.0000 
38.7932 95.6887 38.9890 -3.1600 7.4100 45.4700 -6.7700 -38.8900 -34.0900 1.7700 31.6400 -6.2400 -6.9900 16.9900 24.4100 0.0000 -0.1400 0.0300 -8.3900 1.2100 5.9000 -1.8000 31.8600 6.2900 0.0000 0.0000 0.0000 0.0000 0.0000 0.0000 
39.4081 95.8416 39.8988 -3.2700 7.2000 45.4600 -6.3200 -38.1200 -33.9600 1.7800 31.7400 -6.2600 -6.7900 16.5100 24.5300 0.0000 -0.0700 0.0100 -8.0100 0.0000 5.4800 -2.1500 34.3900 6.9300 0.0000 0.0000 0.0000 0.0000 0.0000 0.0000 
